<?xml version="1.0" encoding="utf-8"?>
<!-- Generator: Adobe Illustrator 18.0.0, SVG Export Plug-In . SVG Version: 6.00 Build 0)  -->
<!DOCTYPE svg PUBLIC "-//W3C//DTD SVG 1.1//EN" "http://www.w3.org/Graphics/SVG/1.1/DTD/svg11.dtd">
<svg version="1.1" id="Layer_1" xmlns="http://www.w3.org/2000/svg" xmlns:xlink="http://www.w3.org/1999/xlink" x="0px" y="0px"
	 viewBox="287.5 37.5 225 225" enable-background="new 287.5 37.5 225 225" xml:space="preserve">
<g>
	<path fill="#FFFFFF" d="M306.072,85.248h190.947c5.187,0,9.568-4.382,9.568-9.568c0-5.187-4.382-9.568-9.568-9.568H306.072
		c-5.187,0-9.568,4.382-9.568,9.568C296.504,80.867,300.885,85.248,306.072,85.248z"/>
	<path fill="#FFFFFF" d="M497.035,135.34H306.072c-5.187,0-9.568,4.382-9.568,9.568c0,5.186,4.382,9.568,9.568,9.568h190.947
		c5.187,0,9.568-4.382,9.568-9.568C506.587,139.721,502.213,135.34,497.035,135.34z"/>
	<path fill="#FFFFFF" d="M497.035,204.568H306.072c-5.187,0-9.568,4.382-9.568,9.568c0,5.186,4.382,9.568,9.568,9.568h190.947
		c5.187,0,9.568-4.382,9.568-9.568C506.587,208.949,502.213,204.568,497.035,204.568z"/>
</g>
</svg>
